# Blender v2.80 (sub 47) OBJ File: 'croucher.blend'
# www.blender.org
o Cube_Cube.001
v -1.000000 19.022060 8.339916
v 1.000000 19.022060 8.339916
v -1.000000 0.000000 8.339916
v 1.000000 0.000000 8.339916
v -1.000000 11.181581 8.339916
v 1.000000 11.181581 8.339916
v 1.000000 19.022060 5.135010
v 1.000000 0.000000 5.135010
v -1.000000 19.022060 5.135010
v -1.000000 0.000000 5.135010
v -1.000000 11.181581 5.135010
v 1.000000 11.181581 5.135010
v -1.044446 15.972562 10.444459
v -1.044446 19.972561 10.444459
v -1.044446 15.972562 -10.444459
v -1.044446 19.972561 -10.444459
v 1.044446 15.972562 10.444459
v 1.044446 19.972561 10.444459
v 1.044446 15.972562 -10.444459
v 1.044446 19.972561 -10.444459
v -2.671531 -0.248870 10.487172
v -2.671531 0.248870 10.487172
v -2.671531 -0.248870 -10.487172
v -2.671531 0.248870 -10.487172
v 2.671531 -0.248870 10.487172
v 2.671531 0.248870 10.487172
v 2.671531 -0.248870 -10.487172
v 2.671531 0.248870 -10.487172
v -1.000000 19.022060 -8.339916
v 1.000000 19.022060 -8.339916
v -1.000000 0.000000 -8.339916
v 1.000000 0.000000 -8.339916
v -1.000000 19.022060 0.000000
v 1.000000 19.022060 0.000000
v -1.000000 11.181581 -8.339916
v 1.000000 11.181581 -8.339916
v 1.000000 11.181581 0.000000
v -1.000000 11.181581 0.000000
v 1.000000 19.022060 -5.135010
v 1.000000 0.000000 -5.135010
v -1.000000 19.022060 -5.135010
v -1.000000 0.000000 -5.135010
v -1.000000 11.181581 -5.135010
v 1.000000 11.181581 -5.135010
v -1.044446 15.972562 -10.444459
v -1.044446 19.972561 -10.444459
v -1.044446 15.972562 10.444459
v -1.044446 19.972561 10.444459
v 1.044446 15.972562 -10.444459
v 1.044446 19.972561 -10.444459
v 1.044446 15.972562 10.444459
v 1.044446 19.972561 10.444459
v -2.671531 -0.248870 -10.487172
v -2.671531 0.248870 -10.487172
v -2.671531 -0.248870 10.487172
v -2.671531 0.248870 10.487172
v 2.671531 -0.248870 -10.487172
v 2.671531 0.248870 -10.487172
v 2.671531 -0.248870 10.487172
v 2.671531 0.248870 10.487172
vt 0.625000 0.701964
vt 0.573478 0.750000
vt 0.573478 0.701964
vt 0.625000 0.750000
vt 0.573478 1.000000
vt 0.875000 0.701964
vt 0.500000 0.701964
vt 0.573478 0.048036
vt 0.625000 0.048036
vt 0.573478 0.125000
vt 0.573478 0.625000
vt 0.500000 1.000000
vt 0.500000 0.750000
vt 0.573478 0.000000
vt 0.500000 0.048036
vt 0.500000 0.000000
vt 0.625000 0.000000
vt 0.875000 0.625000
vt 0.625000 0.625000
vt 0.625000 0.000000
vt 0.375000 0.250000
vt 0.375000 0.000000
vt 0.625000 0.250000
vt 0.375000 0.500000
vt 0.625000 0.500000
vt 0.375000 0.750000
vt 0.625000 0.750000
vt 0.375000 1.000000
vt 0.125000 0.750000
vt 0.125000 0.500000
vt 0.875000 0.500000
vt 0.625000 0.000000
vt 0.375000 0.250000
vt 0.375000 0.000000
vt 0.625000 0.250000
vt 0.375000 0.500000
vt 0.625000 0.500000
vt 0.375000 0.750000
vt 0.625000 0.750000
vt 0.375000 1.000000
vt 0.125000 0.750000
vt 0.125000 0.500000
vt 0.875000 0.500000
vt 0.573478 0.750000
vt 0.625000 0.701964
vt 0.573478 0.701964
vt 0.573478 1.000000
vt 0.625000 0.750000
vt 0.875000 0.701964
vt 0.573478 0.048036
vt 0.500000 0.701964
vt 0.625000 0.048036
vt 0.500000 1.000000
vt 0.500000 0.750000
vt 0.500000 0.048036
vt 0.573478 0.000000
vt 0.500000 0.000000
vt 0.625000 0.000000
vt 0.375000 0.250000
vt 0.625000 0.000000
vt 0.375000 0.000000
vt 0.375000 0.500000
vt 0.625000 0.250000
vt 0.375000 0.750000
vt 0.625000 0.500000
vt 0.375000 1.000000
vt 0.625000 0.750000
vt 0.125000 0.750000
vt 0.125000 0.500000
vt 0.875000 0.500000
vt 0.375000 0.250000
vt 0.625000 0.000000
vt 0.375000 0.000000
vt 0.375000 0.500000
vt 0.625000 0.250000
vt 0.375000 0.750000
vt 0.625000 0.500000
vt 0.375000 1.000000
vt 0.625000 0.750000
vt 0.125000 0.750000
vt 0.125000 0.500000
vt 0.875000 0.500000
vt 0.625000 1.000000
vt 0.875000 0.750000
vt 0.625000 0.125000
vt 0.625000 1.000000
vt 0.875000 0.750000
vt 0.625000 1.000000
vt 0.875000 0.750000
vt 0.625000 1.000000
vt 0.875000 0.750000
vt 0.625000 1.000000
vt 0.875000 0.750000
vt 0.625000 1.000000
vt 0.875000 0.750000
vn 1.0000 0.0000 0.0000
vn 0.0000 0.0000 1.0000
vn 0.0000 1.0000 0.0000
vn 0.0000 0.0000 -1.0000
vn -1.0000 0.0000 0.0000
vn 0.0000 -1.0000 0.0000
s off
f 7/1/1 6/2/1 12/3/1
f 2/4/2 5/5/2 6/2/2
f 9/6/3 2/4/3 7/1/3
f 8/7/4 11/8/4 12/3/4
f 9/9/5 38/10/5 11/8/5
f 37/11/6 11/8/6 38/10/6
f 6/2/2 3/12/2 4/13/2
f 12/3/1 4/13/1 8/7/1
f 5/14/5 10/15/5 3/16/5
f 1/17/5 11/8/5 5/14/5
f 3/16/6 8/7/6 4/13/6
f 33/18/3 7/1/3 34/19/3
f 34/19/1 12/3/1 37/11/1
f 14/20/5 15/21/5 13/22/5
f 16/23/4 19/24/4 15/21/4
f 20/25/1 17/26/1 19/24/1
f 18/27/2 13/28/2 17/26/2
f 19/24/6 13/29/6 15/30/6
f 16/31/3 18/27/3 20/25/3
f 22/32/5 23/33/5 21/34/5
f 24/35/4 27/36/4 23/33/4
f 28/37/1 25/38/1 27/36/1
f 26/39/2 21/40/2 25/38/2
f 27/36/6 21/41/6 23/42/6
f 24/43/3 26/39/3 28/37/3
f 36/44/1 39/45/1 44/46/1
f 35/47/4 30/48/4 36/44/4
f 30/48/3 41/49/3 39/45/3
f 43/50/2 40/51/2 44/46/2
f 38/10/5 41/52/5 43/50/5
f 43/50/6 37/11/6 38/10/6
f 31/53/4 36/44/4 32/54/4
f 32/54/1 44/46/1 40/51/1
f 42/55/5 35/56/5 31/57/5
f 43/50/5 29/58/5 35/56/5
f 40/51/6 31/57/6 32/54/6
f 39/45/3 33/18/3 34/19/3
f 44/46/1 34/19/1 37/11/1
f 47/59/5 46/60/5 45/61/5
f 51/62/2 48/63/2 47/59/2
f 49/64/1 52/65/1 51/62/1
f 45/66/4 50/67/4 49/64/4
f 45/68/6 51/62/6 47/69/6
f 50/67/3 48/70/3 52/65/3
f 55/71/5 54/72/5 53/73/5
f 59/74/2 56/75/2 55/71/2
f 57/76/1 60/77/1 59/74/1
f 53/78/4 58/79/4 57/76/4
f 53/80/6 59/74/6 55/81/6
f 58/79/3 56/82/3 60/77/3
f 7/1/1 2/4/1 6/2/1
f 2/4/2 1/83/2 5/5/2
f 9/6/3 1/84/3 2/4/3
f 8/7/4 10/15/4 11/8/4
f 9/9/5 33/85/5 38/10/5
f 37/11/6 12/3/6 11/8/6
f 6/2/2 5/5/2 3/12/2
f 12/3/1 6/2/1 4/13/1
f 5/14/5 11/8/5 10/15/5
f 1/17/5 9/9/5 11/8/5
f 3/16/6 10/15/6 8/7/6
f 33/18/3 9/6/3 7/1/3
f 34/19/1 7/1/1 12/3/1
f 14/20/5 16/23/5 15/21/5
f 16/23/4 20/25/4 19/24/4
f 20/25/1 18/27/1 17/26/1
f 18/27/2 14/86/2 13/28/2
f 19/24/6 17/26/6 13/29/6
f 16/31/3 14/87/3 18/27/3
f 22/32/5 24/35/5 23/33/5
f 24/35/4 28/37/4 27/36/4
f 28/37/1 26/39/1 25/38/1
f 26/39/2 22/88/2 21/40/2
f 27/36/6 25/38/6 21/41/6
f 24/43/3 22/89/3 26/39/3
f 36/44/1 30/48/1 39/45/1
f 35/47/4 29/90/4 30/48/4
f 30/48/3 29/91/3 41/49/3
f 43/50/2 42/55/2 40/51/2
f 38/10/5 33/85/5 41/52/5
f 43/50/6 44/46/6 37/11/6
f 31/53/4 35/47/4 36/44/4
f 32/54/1 36/44/1 44/46/1
f 42/55/5 43/50/5 35/56/5
f 43/50/5 41/52/5 29/58/5
f 40/51/6 42/55/6 31/57/6
f 39/45/3 41/49/3 33/18/3
f 44/46/1 39/45/1 34/19/1
f 47/59/5 48/63/5 46/60/5
f 51/62/2 52/65/2 48/63/2
f 49/64/1 50/67/1 52/65/1
f 45/66/4 46/92/4 50/67/4
f 45/68/6 49/64/6 51/62/6
f 50/67/3 46/93/3 48/70/3
f 55/71/5 56/75/5 54/72/5
f 59/74/2 60/77/2 56/75/2
f 57/76/1 58/79/1 60/77/1
f 53/78/4 54/94/4 58/79/4
f 53/80/6 57/76/6 59/74/6
f 58/79/3 54/95/3 56/82/3
